<?xml version="1.0" encoding="utf-8"?>
<!-- Generator: Adobe Illustrator 23.0.3, SVG Export Plug-In . SVG Version: 6.00 Build 0)  -->
<svg version="1.1" id="Слой_1" xmlns="http://www.w3.org/2000/svg" xmlns:xlink="http://www.w3.org/1999/xlink" x="0px" y="0px"
	 viewBox="0 0 29 27" style="enable-background:new 0 0 29 27;" xml:space="preserve">
<g>
	<path d="M27.9,4.9L24.8,1c-0.3-0.4-0.7-0.6-1.2-0.6H7.5C7,0.4,6.6,0.6,6.3,1L3.1,4.9C2.8,5.3,2.6,6.1,2.6,6.6v2.9
		c0.2-0.4,0.6-0.7,1-0.8c0-0.3,0.1-0.6,0.3-0.9c0.3-0.5,0.8-0.9,1.3-1c0.2-0.1,0.4-0.1,0.6-0.1c0.7,0,1.4,0.4,1.8,1
		c0.1,0,0.2,0,0.4,0c0.4,0,0.7,0.1,1,0.3l1.7-0.4c0.2-0.1,0.4-0.1,0.7-0.1c1.2,0,2.2,0.8,2.5,2l3.4,13c0.2,0.7,0.1,1.4-0.3,2
		c-0.4,0.6-0.9,1-1.6,1.2l-1.5,0.4h12.7c1.1,0,1.9-0.9,1.9-1.9l0-17.4C28.5,6.1,28.2,5.3,27.9,4.9z M4.2,4.9l1-1.3h7l0.7-1.1H6.1
		l0.8-1C7,1.3,7.2,1.2,7.5,1.2h16.1c0.2,0,0.5,0.1,0.6,0.3l0.8,1H18l0.4,1.1h7.5l1,1.3H4.2z M4.5,9.6L4,9.7
		c-0.5,0.1-0.7,0.6-0.6,1.1l0,0c0.1,0.5,0.6,0.7,1.1,0.6l3.7-1c0.5-0.1,0.7-0.6,0.6-1.1l0,0C8.7,8.9,8.2,8.7,7.7,8.8L7.3,8.9
		C7.1,9,6.8,8.8,6.8,8.6l0,0C6.6,8,6.1,7.7,5.5,7.8l0,0C5,8,4.6,8.5,4.8,9.1l0,0C4.9,9.3,4.7,9.6,4.5,9.6z M5.7,8.4
		c0.2-0.1,0.5,0.1,0.5,0.3C6.3,9,6.1,9.2,5.9,9.3C5.7,9.3,5.4,9.2,5.4,8.9C5.3,8.7,5.4,8.5,5.7,8.4z M11.1,21.8
		c0,0.2-0.1,0.3-0.2,0.4l-5.4,1.4c-0.2,0-0.3-0.1-0.4-0.2L5.1,23c0-0.2,0.1-0.3,0.2-0.4l5.4-1.4c0.2,0,0.3,0.1,0.4,0.2L11.1,21.8z
		 M11.8,16.2l0.1,0.3c0,0.2-0.1,0.3-0.2,0.4l-7.3,1.9c-0.2,0-0.3-0.1-0.4-0.2l-0.1-0.3c0-0.2,0.1-0.3,0.2-0.4l7.3-1.9
		C11.6,15.9,11.7,16,11.8,16.2z M11,14.3l-7.3,1.9c-0.2,0-0.3-0.1-0.4-0.2l-0.1-0.3c0-0.2,0.1-0.3,0.2-0.4l7.3-1.9
		c0.2,0,0.3,0.1,0.4,0.2l0.1,0.3C11.2,14.1,11.1,14.2,11,14.3z M10.8,19.5L4.9,21c-0.2,0-0.3-0.1-0.4-0.2l-0.1-0.3
		c0-0.2,0.1-0.3,0.2-0.4l5.9-1.5c0.2,0,0.3,0.1,0.4,0.2l0.1,0.3C11.1,19.3,11,19.4,10.8,19.5z M16.1,22.6l-3.4-13
		c-0.2-0.8-1-1.2-1.8-1L9.3,9c0,0.1,0.1,0.2,0.1,0.3c0.2,0.8-0.3,1.6-1,1.8L4.7,12c-0.7,0.2-1.5-0.2-1.8-0.9c0-0.1-0.1-0.3-0.1-0.4
		l-1.7,0.4c-0.8,0.2-1.2,1-1,1.8l3.4,13c0.2,0.8,1,1.2,1.8,1l9.9-2.6C15.9,24.2,16.3,23.4,16.1,22.6z M4.8,25.5L1.9,14.2l9.9-2.6
		L14.7,23L4.8,25.5z"/>
</g>
</svg>
