<svg xmlns="http://www.w3.org/2000/svg" viewBox="0 0 89.93 83.83" id="price-drop">
  <g>
    <g>
      <path fill="#122ecc" d="M89.57,30.39,46.3,67.12a1.31,1.31,0,0,1-2-.85L39.42,40.64a1,1,0,0,1,.3-1L81,1.44a1.3,1.3,0,0,1,2.06.75L89.89,29.3A1.08,1.08,0,0,1,89.57,30.39Z"></path>
      <polygon fill="#122ecc" points="88.49 65.44 60.92 83.83 54.1 58.02 82.9 36.21 88.49 65.44"></polygon>
      <path fill="#122ecc" d="M89.26,30,6.38,35.82a.93.93,0,0,1-1-.73L0,6.65A.7.7,0,0,1,.66,5.8L83.54,0a.93.93,0,0,1,.95.74l5.42,28.44A.7.7,0,0,1,89.26,30Z"></path>
      <polygon fill="#122ecc" points="88.49 65.44 45.07 70.05 39.3 40.03 82.87 36.08 88.49 65.44"></polygon>
      <path fill="#fff" d="M13.32 28.24l-2.69.19c-.44 0-.68-.13-.7-.49L8.8 12.46c0-.36.18-.55.63-.58l7.72-.54a6 6 0 013.91.82 3.79 3.79 0 011.59 3l.17 2.47a3.75 3.75 0 01-1.13 3.2 6 6 0 01-3.75 1.36l-4 .28c-.25 0-.37.12-.36.31l.35 4.87C14 28 13.76 28.21 13.32 28.24zm.39-8.61l3.36-.24a2.28 2.28 0 001.4-.45 1.44 1.44 0 00.32-1.17l-.15-2.16a1.5 1.5 0 00-.5-1.15 2.3 2.3 0 00-1.45-.25l-3.35.24c-.24 0-.35.12-.33.31l.33 4.61C13.36 19.55 13.48 19.64 13.71 19.63zM30.73 27L28 27.21c-.45 0-.68-.13-.71-.49L26.21 11.25c0-.36.18-.56.63-.59l7.53-.53a6.13 6.13 0 013.94.84 3.78 3.78 0 011.62 3l.14 2a3.73 3.73 0 01-2.53 4.05v.11l3.8 5.5c.22.4 0 .62-.5.66l-2.56.18a2.45 2.45 0 01-.83-.05A.82.82 0 0137 26L33.45 20.7l-2.12.15c-.25 0-.37.12-.36.31l.38 5.28C31.38 26.8 31.17 27 30.73 27zm.38-8.8l3.1-.22a2.6 2.6 0 001.46-.45 1.29 1.29 0 00.39-1.15l-.14-2a1.4 1.4 0 00-.56-1.13A2.44 2.44 0 0033.85 13l-3.11.21c-.23 0-.34.12-.32.31L30.74 18C30.75 18.16 30.87 18.24 31.11 18.23zM48.33 9.7l1.13 15.47c0 .36-.19.56-.63.59L46.14 26c-.44 0-.68-.14-.7-.5L44.31 10c0-.36.19-.56.63-.59l2.69-.18C48.07 9.17 48.31 9.34 48.33 9.7zM62.76 24.79L59.31 25a6.12 6.12 0 01-3.94-.82 3.75 3.75 0 01-1.59-3L53.19 13a3.76 3.76 0 011.13-3.21 6.15 6.15 0 013.79-1.35l3.45-.24a6.06 6.06 0 013.92.83 3.71 3.71 0 011.6 3l.09 1.21c0 .38-.19.59-.65.62l-2.66.18c-.45 0-.68-.14-.71-.52l-.08-1.05a1.43 1.43 0 00-.51-1.14 2.23 2.23 0 00-1.46-.25l-2.16.15a2.29 2.29 0 00-1.38.45 1.42 1.42 0 00-.34 1.2l.57 7.85a1.43 1.43 0 00.51 1.14 2.25 2.25 0 001.44.25L61.89 22a2.34 2.34 0 001.41-.45 1.42 1.42 0 00.34-1.2l-.07-1.05c0-.38.18-.59.62-.62l2.66-.18c.46 0 .71.14.74.51l.09 1.21a3.74 3.74 0 01-1.16 3.2A6 6 0 0162.76 24.79zM83.08 23.36l-10.35.73c-.45 0-.68-.14-.71-.5L70.9 8.12c0-.36.18-.55.63-.59l10.35-.72c.42 0 .64.14.67.5l.12 1.75c0 .36-.17.55-.59.58l-6.61.47c-.26 0-.38.12-.36.31l.24 3.34c0 .19.15.28.4.26l5.41-.38c.44 0 .68.13.71.49L82 15.88c0 .37-.18.56-.62.59L76 16.85c-.26 0-.38.12-.36.31l.26 3.58c0 .19.14.27.4.26l6.61-.47c.42 0 .65.14.67.5l.13 1.75C83.7 23.14 83.5 23.34 83.08 23.36zM45.77 58l-.4-8.62c0-.2.11-.31.35-.33l4.36-.31a3.35 3.35 0 012.17.46 2.06 2.06 0 01.84 1.68l.22 4.55a2.14 2.14 0 01-.69 1.78 3.34 3.34 0 01-2.11.76l-4.35.31C45.91 58.32 45.78 58.23 45.77 58zm2.38-1.45l1.92-.13a1.36 1.36 0 00.79-.25.8.8 0 00.2-.67l-.2-4.38a.77.77 0 00-.27-.63 1.22 1.22 0 00-.81-.14l-1.92.13c-.13 0-.19.07-.19.17l.27 5.76C48 56.55 48 56.59 48.15 56.58zM57.75 57.5l-1.5.1c-.24 0-.37-.07-.38-.27l-.41-8.63q0-.3.36-.33L60 48.08a3.26 3.26 0 012.18.47 2.06 2.06 0 01.86 1.68l.05 1.12a2.16 2.16 0 01-1.47 2.26v.06l2 3.07c.12.22 0 .34-.28.36L62 57.2a1.25 1.25 0 01-.46 0 .41.41 0 01-.24-.23l-1.91-3-1.18.08c-.14 0-.21.07-.2.18l.14 2.94Q58.13 57.47 57.75 57.5zm.33-4.91l1.73-.12a1.47 1.47 0 00.82-.25.72.72 0 00.23-.64l0-1.12a.73.73 0 00-.29-.63 1.34 1.34 0 00-.84-.14L58 49.81c-.13 0-.19.06-.18.17l.11 2.47C57.89 52.55 58 52.6 58.08 52.59zM70.57 56.6l-2 .14a3.41 3.41 0 01-2.18-.45 2.08 2.08 0 01-.84-1.69l-.21-4.55a2.13 2.13 0 01.68-1.79 3.38 3.38 0 012.12-.75l2-.14a3.41 3.41 0 012.18.45 2.08 2.08 0 01.84 1.69l.21 4.55a2.16 2.16 0 01-.68 1.79A3.44 3.44 0 0170.57 56.6zm-1.69-1.47l1.25-.08a1.34 1.34 0 00.79-.25.85.85 0 00.21-.67l-.21-4.38a.76.76 0 00-.27-.64 1.29 1.29 0 00-.81-.13l-1.25.08a1.28 1.28 0 00-.78.25.85.85 0 00-.2.67l.21 4.38a.78.78 0 00.26.64A1.18 1.18 0 0068.88 55.13zM77.81 56.09l-1.5.11c-.24 0-.37-.08-.38-.28l-.4-8.62c0-.2.11-.31.35-.33l4.3-.3a3.23 3.23 0 012.16.46 2.07 2.07 0 01.84 1.68l.06 1.37A2.15 2.15 0 0182.57 52a3.45 3.45 0 01-2.1.76l-2.22.15c-.15 0-.21.07-.21.17l.13 2.72C78.18 56 78.06 56.08 77.81 56.09zm.34-4.8L80 51.16a1.25 1.25 0 00.78-.25.79.79 0 00.2-.66l0-1.2a.85.85 0 00-.26-.64 1.28 1.28 0 00-.81-.14L78 48.4c-.13 0-.19.07-.19.18L78 51.14C78 51.25 78 51.3 78.15 51.29z"></path>
    </g>
  </g>
</svg>
